<svg width="48" height="48" viewBox="0 0 48 48" fill="none" xmlns="http://www.w3.org/2000/svg">
<rect width="48" height="48" rx="8" fill="white"/>
<path d="M38.25 33.4997L36.6665 35.232C35.8266 36.1504 34.6877 36.6664 33.5002 36.6664C32.3127 36.6664 31.1738 36.1504 30.3339 35.232C29.4929 34.3153 28.3541 33.8007 27.1669 33.8007C25.9798 33.8007 24.841 34.3153 24 35.232M9.75 36.6664H12.4014C13.1759 36.6664 13.5632 36.6664 13.9276 36.5789C14.2507 36.5013 14.5596 36.3734 14.8429 36.1997C15.1625 36.0039 15.4364 35.7301 15.984 35.1824L35.875 15.2914C37.1867 13.9797 37.1867 11.853 35.875 10.5414C34.5634 9.2297 32.4367 9.2297 31.125 10.5414L11.234 30.4324C10.6863 30.9801 10.4125 31.2539 10.2166 31.5735C10.043 31.8568 9.91507 32.1657 9.8375 32.4888C9.75 32.8533 9.75 33.2405 9.75 34.0151V36.6664Z" stroke="#344054" stroke-width="2" stroke-linecap="round" stroke-linejoin="round"/>
</svg>
