<svg height="2500" viewBox="0 0 2616 2672" width="2448" xmlns="http://www.w3.org/2000/svg" xmlns:xlink="http://www.w3.org/1999/xlink"><radialGradient id="a" cx="1644.106" cy="-469.834" gradientTransform="matrix(-.1086 -2.6614 3.9036 -.1597 3004.592 6565.758)" gradientUnits="userSpaceOnUse" r="496"><stop offset="0" stop-color="#1abd4d"/><stop offset=".141" stop-color="#1abd4d"/><stop offset=".251" stop-color="#6ec30d"/><stop offset=".31" stop-color="#8ac502"/><stop offset=".369" stop-color="#a2c600"/><stop offset=".451" stop-color="#c8c903"/><stop offset=".541" stop-color="#ebcb03"/><stop offset=".62" stop-color="#f7cd07"/><stop offset=".702" stop-color="#fdcd04"/><stop offset=".769" stop-color="#fdce05"/><stop offset=".859" stop-color="#ffce0a"/><stop offset="1" stop-color="#ffce0a"/></radialGradient><radialGradient id="b" cx="2192.93" cy="1963.396" gradientTransform="matrix(1 0 0 -1 0 2672)" gradientUnits="userSpaceOnUse" r="465.709"><stop offset="0" stop-color="#fb4e5a"/><stop offset=".412" stop-color="#fb4e5a"/><stop offset="1" stop-color="#ff4540"/></radialGradient><radialGradient id="c" cx="2016.184" cy="1833.56" gradientTransform="matrix(-2.494 1.3827 1.8744 3.3876 3288.46 -9180.281)" gradientUnits="userSpaceOnUse" r="516.336"><stop offset="0" stop-color="#ff4541"/><stop offset=".231" stop-color="#ff4541"/><stop offset=".31" stop-color="#ff4540"/><stop offset=".459" stop-color="#ff4640"/><stop offset=".541" stop-color="#ff473f"/><stop offset=".702" stop-color="#ff5138"/><stop offset=".769" stop-color="#ff5b33"/><stop offset=".859" stop-color="#ff6c29"/><stop offset="1" stop-color="#ff8c18"/></radialGradient><radialGradient id="d" cx="1855.998" cy="-741.849" gradientTransform="matrix(-3.3352 -4.3581 -1.6071 1.2323 6352.528 11518.744)" gradientUnits="userSpaceOnUse" r="700.859"><stop offset="0" stop-color="#0cba65"/><stop offset=".129" stop-color="#0cba65"/><stop offset=".212" stop-color="#0bb86d"/><stop offset=".302" stop-color="#09b479"/><stop offset=".4" stop-color="#08ad93"/><stop offset=".478" stop-color="#0aa6a9"/><stop offset=".569" stop-color="#0d9cc6"/><stop offset=".671" stop-color="#1893dd"/><stop offset=".769" stop-color="#258bf1"/><stop offset=".859" stop-color="#3086ff"/><stop offset="1" stop-color="#3086ff"/></radialGradient><radialGradient id="e" cx="1314.927" cy="1525.009" gradientTransform="matrix(-.3455 2.9874 4.1172 .4792 -4607.626 -4413.656)" gradientUnits="userSpaceOnUse" r="476.521"><stop offset="0" stop-color="#ff4e3a"/><stop offset=".369" stop-color="#ff4e3a"/><stop offset=".459" stop-color="#ff8a1b"/><stop offset=".541" stop-color="#ffa312"/><stop offset=".62" stop-color="#ffb60c"/><stop offset=".769" stop-color="#ffcd0a"/><stop offset=".859" stop-color="#fecf0a"/><stop offset=".922" stop-color="#fecf08"/><stop offset="1" stop-color="#fdcd01"/></radialGradient><radialGradient id="f" cx="1134.74" cy="1798.918" gradientTransform="matrix(-1.2391 1.3736 -3.8652 -3.503 9338.327 4971.607)" gradientUnits="userSpaceOnUse" r="384.924"><stop offset="0" stop-color="#ff4c3c"/><stop offset=".322" stop-color="#ff4c3c"/><stop offset=".6" stop-color="#ff692c"/><stop offset=".729" stop-color="#ff7825"/><stop offset=".878" stop-color="#ff8d1b"/><stop offset="1" stop-color="#ff9f13"/></radialGradient><radialGradient id="g" cx="2281.82" cy="-845.066" gradientTransform="matrix(-2.6897 -1.488 2.0215 -3.6457 9554.618 3162.116)" gradientUnits="userSpaceOnUse" r="478.678"><stop offset="0" stop-color="#0fbc5f"/><stop offset=".231" stop-color="#0fbc5f"/><stop offset=".31" stop-color="#0fbc5f"/><stop offset=".369" stop-color="#0fbc5e"/><stop offset=".459" stop-color="#0fbc5d"/><stop offset=".541" stop-color="#12bc58"/><stop offset=".702" stop-color="#28bf3c"/><stop offset=".769" stop-color="#38c02b"/><stop offset=".859" stop-color="#52c218"/><stop offset=".922" stop-color="#67c30f"/><stop offset="1" stop-color="#86c504"/></radialGradient><g clip-rule="evenodd" fill-rule="evenodd"><path d="m394 2284 598-223c-183-91-326-253-398-447-4-11-7-22-11-33-24-75-37-154-38-236h-545c2 213 51 413 141 590v1c66 130 151 247 253 348z" fill="url(#a)"/><path d="m1849 731-1-1c-63-60-166-136-312-174-64-17-131-26-201-26h-2c-35-122-55-322 0-530h2c361 0 663 132 895 349z" fill="url(#b)"/><path d="m313 476c2 161 146 342 416 348 145-178 363-294 606-294h10l-9-530h-1c-289 0-555 92-774 247-92 66-175 143-248 229z" fill="url(#c)"/><path d="m2311 1407-264 185c0 3-1 7-1 10h11c-12 72-38 144-76 209-43 75-97 132-153 175-166 130-359 156-493 156h-14c-130 228-154 348 0 530h14c211 0 398-39 564-112 119-53 225-121 320-210 127-116 226-260 293-426s104-353 104-555z" fill="url(#d)"/></g><path d="m2053 1621h534c5-29 13-62 21-96 5-52 8-104 8-158 0-95-9-191-25-279h-1255v514h721c-1 6-2 13-4 19z" fill="#3086ff"/><g clip-rule="evenodd" fill-rule="evenodd"><path d="m0 1363c93 52 455 43 545-1v-26c0-89 14-173 41-254 45-135 126-256 230-350-1-2-2-3-2-3-1-4-18-1-21-4-12-9-36-14-50-18-31-9-82-28-110-48-82-60-208-130-294-213-78 87-145 185-198 291-91 182-141 383-141 599z" fill="url(#e)"/><path d="m775 771h-1c-39 3-84-8-139-42l-372-190c84-112 184-211 298-292 76-54 158-100 244-137l228 483c-97 41-185 103-258 178z" fill="url(#f)"/><path d="m719 2020c-258 96-313 105-340 248 52 54 109 104 170 149 150 109 418 255 786 255h1v-530h-1c-149 0-289-43-408-117-21 7-42 15-56 4-36-26-121 23-152-9z" fill="url(#g)"/></g></svg>