<svg width="142" height="25" viewBox="0 0 142 25" fill="none" xmlns="http://www.w3.org/2000/svg">
<g clip-path="url(#clip0_281_4730)">
<path d="M17.781 13.1276C16.869 12.369 15.7144 11.9891 14.3172 11.9891H6.27655C5.5786 11.9891 5.03763 11.8311 4.65493 11.5126C4.27093 11.1953 4.08022 10.7084 4.08022 10.0504V7.43142C4.08022 6.81911 4.27093 6.37261 4.65493 6.088C5.03763 5.8047 5.52152 5.6637 6.1079 5.6637H13.5751C14.2056 5.6637 14.7181 5.81645 15.1124 6.12325C15.5068 6.43006 15.704 6.90006 15.704 7.53456V7.77217C15.704 7.99934 15.8169 8.11161 16.0413 8.11161H18.2376C18.5749 8.11161 18.7449 7.94189 18.7449 7.60245V6.9562C18.7449 5.52792 18.3388 4.46781 17.528 3.77717C16.7172 3.08523 15.6353 2.73926 14.2848 2.73926H6.51395C5.74725 2.73926 5.02725 2.8189 4.35136 2.97687C3.67547 3.13615 3.09039 3.40117 2.59482 3.77587C2.09925 4.14926 1.71136 4.63231 1.42855 5.22112C1.14704 5.81123 1.00693 6.53711 1.00693 7.39747V10.254C1.00693 11.9539 1.47395 13.1837 2.40931 13.9435C3.34336 14.7034 4.62249 15.082 6.24412 15.082H13.9475C14.5325 15.082 15.0346 15.2243 15.451 15.5063C15.8675 15.7896 16.0763 16.2491 16.0763 16.8836V19.3994C16.0763 20.1018 15.8688 20.5836 15.451 20.8447C15.0346 21.1058 14.4768 21.2363 13.7788 21.2363H6.27785C5.64736 21.2363 5.13493 21.0836 4.74055 20.7781C4.34617 20.4713 4.14898 20.0013 4.14898 19.3668V19.1292C4.14898 18.902 4.03612 18.7897 3.81168 18.7897H1.61536C1.27806 18.7897 1.10941 18.9595 1.10941 19.2989V19.9452C1.10941 21.3512 1.52066 22.4048 2.34185 23.1072C3.16433 23.8096 4.23979 24.1608 5.56822 24.1608H13.3728C14.2277 24.1608 15.0113 24.0929 15.7209 23.9558C16.4305 23.82 17.0376 23.5707 17.5449 23.2077C18.0508 22.8448 18.4452 22.3513 18.7267 21.7285C19.0082 21.1058 19.1483 20.3055 19.1483 19.3315V16.475C19.1483 15.001 18.6917 13.8848 17.7797 13.1249L17.781 13.1276Z" fill="#12002B"/>
<path d="M36.8889 6.75122H28.8482C26.4158 6.75122 24.6476 7.30086 23.5436 8.40014C22.4396 9.49941 21.8869 11.3194 21.8869 13.8574V16.8157C21.8869 19.2872 22.3993 21.1058 23.4242 22.273C24.4491 23.4401 26.1887 24.0237 28.6445 24.0237H36.8889C37.2261 24.0237 37.3948 23.854 37.3948 23.5145V21.7116C37.3948 21.3721 37.2261 21.2024 36.8889 21.2024H29.2867C27.7546 21.2024 26.6739 20.8904 26.0434 20.2676C25.413 19.6449 25.0977 18.5391 25.0977 16.9528V13.7229C25.0977 12.1131 25.4532 11.0191 26.1628 10.442C26.8724 9.86366 27.9816 9.57513 29.4917 9.57513H36.8914C37.23 9.57513 37.3974 9.40541 37.3974 9.06597V7.263C37.3974 6.92355 37.2287 6.75383 36.8914 6.75383H36.8901L36.8889 6.75122Z" fill="#12002B"/>
<path d="M60.0326 1.17529H62.229C62.5079 1.17529 62.7362 1.40376 62.7362 1.68576V23.5146C62.7362 23.7953 62.5092 24.0251 62.229 24.0251H60.0326C59.7537 24.0251 59.5267 23.7966 59.5267 23.5159V1.68576C59.5267 1.40507 59.7537 1.1766 60.0326 1.1766V1.17529Z" fill="#12002B"/>
<path d="M101.717 5.62988C100.974 4.72382 99.9946 4.0371 98.7777 3.57363C97.5609 3.10885 96.0638 2.87646 94.2839 2.87646H85.0264C84.5762 2.87646 84.3505 3.11408 84.3505 3.5906V23.3462C84.3505 23.7993 84.5762 24.0264 85.0264 24.0264H94.2839C96.0404 24.0264 97.5271 23.7941 98.744 23.3293C99.9609 22.8645 100.94 22.1843 101.684 21.2887C102.427 20.3931 102.967 19.2886 103.305 17.9739C103.643 16.6592 103.811 15.163 103.811 13.4854C103.811 11.8078 103.648 10.2777 103.321 8.96296C102.994 7.64826 102.459 6.53724 101.716 5.63118L101.717 5.62988ZM100.569 14.4711C100.569 15.4907 100.462 16.4151 100.249 17.2428C100.035 18.0705 99.691 18.7781 99.2188 19.3682C98.7453 19.9583 98.1382 20.4114 97.3948 20.7286C96.6515 21.0459 95.7498 21.2051 94.6913 21.2051H87.5626V5.73171H94.6913C95.7719 5.73171 96.6839 5.89099 97.4285 6.20824C98.1706 6.52549 98.7739 6.97329 99.2357 7.55165C99.6975 8.13001 100.035 8.8324 100.249 9.66012C100.463 10.4878 100.569 11.4122 100.569 12.4318V14.4724V14.4711Z" fill="#12002B"/>
<path d="M51.6781 6.83228H41.5047C41.2556 6.83228 41.0532 7.03594 41.0532 7.28661V9.03083C41.0532 9.2815 41.2556 9.48516 41.5047 9.48516H51.2305L42.2428 15.2453C41.0623 16.0012 40.2709 17.2362 40.0698 18.6319C39.8752 19.991 40.2722 21.3553 41.1583 22.3801C42.0599 23.4206 43.3261 23.9951 44.7219 23.9951H51.7403C51.9894 23.9951 52.1918 23.7914 52.1918 23.5408V21.7978C52.1918 21.5472 51.9894 21.3435 51.7403 21.3435H44.7219C43.9228 21.3435 43.4221 20.9597 43.1444 20.6385C42.7578 20.192 42.5918 19.615 42.6787 19.0131C42.7695 18.3825 43.1263 17.8263 43.6582 17.4856L53.9483 10.8717V23.5982C53.9483 23.8489 54.1507 24.0525 54.3998 24.0525H56.133C56.3821 24.0525 56.5844 23.8489 56.5844 23.5982V11.7699C56.5844 9.04388 54.3881 6.83358 51.6794 6.83358L51.6781 6.83228Z" fill="#12002B"/>
<path d="M79.3014 13.2882L79.915 12.9657C81.2564 12.2581 81.918 10.7907 81.5626 9.31019C81.2084 7.831 79.8605 6.81006 78.3479 6.81006H70.4629C67.8346 6.81006 65.7044 8.95378 65.7044 11.5988V19.1802C65.7044 21.8252 67.8346 23.969 70.4629 23.969H80.5066C80.7764 23.969 80.9956 23.7483 80.9956 23.4768V21.8096C80.9956 21.538 80.7764 21.3174 80.5066 21.3174H70.4629C69.2901 21.3174 68.3405 20.3604 68.3405 19.1815V18.5979L79.3014 13.2908V13.2882ZM68.3405 11.5975C68.3405 10.4186 69.2927 9.46164 70.4629 9.46164H78.4088C78.824 9.46164 78.9576 9.75408 79.0004 9.92772C79.0432 10.1014 79.0601 10.4225 78.6916 10.6171L78.1377 10.9082L68.3392 15.6513V11.5962L68.3405 11.5975Z" fill="#12002B"/>
<path d="M121.227 6.80493H119.653C119.361 6.80493 119.123 7.04385 119.123 7.3376V18.7925C119.123 20.1869 118 21.3162 116.616 21.3162H111.102C109.717 21.3162 108.594 20.1856 108.594 18.7925V7.3376C108.594 7.04385 108.357 6.80493 108.065 6.80493H106.49C106.198 6.80493 105.961 7.04385 105.961 7.3376V18.7925C105.961 21.6517 108.264 23.9691 111.105 23.9691H116.618C119.459 23.9691 121.762 21.6517 121.762 18.7925V7.3376C121.762 7.04385 121.525 6.80493 121.233 6.80493H121.231H121.227Z" fill="#12002B"/>
<path d="M136.952 12.4292L140.92 7.32453C141.093 7.10259 140.936 6.77881 140.657 6.77881H138.312C138.208 6.77881 138.109 6.82711 138.046 6.91067L133.09 13.3849H134.892C135.686 13.3849 136.436 13.0363 136.952 12.4292Z" fill="#7400E8"/>
<path d="M140.92 23.4769L136.952 18.3722C136.437 17.7651 135.686 17.4165 134.892 17.4165H133.09L138.046 23.8907C138.109 23.9743 138.208 24.0226 138.312 24.0226H140.657C140.936 24.0226 141.094 23.6975 140.92 23.4769Z" fill="#1E00FF"/>
<path d="M127.172 6.91997C127.109 6.8325 127.007 6.78027 126.9 6.78027H124.321C124.049 6.78027 123.889 7.091 124.048 7.31425L129.743 15.3447L124.035 23.4888C123.878 23.7133 124.037 24.0214 124.308 24.0214H126.754C126.862 24.0214 126.961 23.9692 127.025 23.8817L130.478 19.0969C131.281 17.9845 131.706 16.6685 131.706 15.2938C131.706 13.919 131.279 12.5978 130.473 11.4842L127.17 6.91997H127.172Z" fill="#12002B"/>
</g>
<defs>
<clipPath id="clip0_281_4730">
<rect width="140.108" height="24" fill="white" transform="translate(0.945953 0.621826)"/>
</clipPath>
</defs>
</svg>
