<svg width="696" height="912" viewBox="0 0 696 912" fill="none" xmlns="http://www.w3.org/2000/svg">
<g clip-path="url(#clip0_495_5699)">
<rect width="696" height="912" rx="20" fill="black"/>
<g filter="url(#filter0_f_495_5699)">
<circle cx="306.5" cy="-116.5" r="416.5" fill="#7400E8"/>
</g>
<g filter="url(#filter1_f_495_5699)">
<circle cx="-23" cy="436" r="294" fill="#1F00FF"/>
</g>
<g style="mix-blend-mode:plus-lighter">
<path d="M305.667 553.307C351.814 553.307 395.473 573.568 425.409 608.854L656.071 905.562C666.175 918.386 656.975 937.281 640.763 937.281H504.432C498.4 937.281 492.67 934.474 488.975 929.617L200.93 553.307H305.667ZM-158.83 -64.9023C-152.647 -64.9022 -146.69 -61.8664 -143.071 -56.7822H-143.146L48.8336 208.509C95.6597 273.238 120.468 350.033 120.468 429.939C120.468 509.846 95.8105 586.337 49.1353 650.99L-151.591 929.106C-155.286 934.191 -161.092 937.227 -167.351 937.227H-309.489C-325.248 937.226 -334.523 919.318 -325.399 906.266L6.38141 432.899L-324.645 -33.8652C-333.844 -46.8415 -324.569 -64.9023 -308.734 -64.9023H-158.83ZM640.763 -65C656.975 -65 666.1 -46.1806 656.071 -33.2803L425.409 263.428C395.398 298.714 351.814 318.975 305.667 318.975H200.93L488.975 -57.3359C492.67 -62.1924 498.4 -64.9999 504.432 -65H640.763Z" fill="url(#paint0_linear_495_5699)" fill-opacity="0.2"/>
</g>
<g style="mix-blend-mode:screen" opacity="0.2" filter="url(#filter2_f_495_5699)">
<mask id="path-5-inside-1_495_5699" fill="white">
<path d="M354.553 537.932C432.467 537.932 506.179 572.14 556.722 631.716L946.165 1132.67C963.225 1154.32 947.692 1186.22 920.32 1186.22H690.144C679.959 1186.22 670.284 1181.48 664.046 1173.28L177.718 537.932H354.553ZM-429.69 -505.835C-419.251 -505.835 -409.194 -500.71 -403.083 -492.126H-403.21L-79.077 -44.2158C-0.0170898 65.0714 41.8682 194.73 41.8683 329.642C41.8683 464.553 0.238037 593.699 -78.5673 702.858L-417.469 1172.42C-423.707 1181.01 -433.509 1186.13 -444.076 1186.13H-684.058C-710.665 1186.13 -726.324 1155.89 -710.92 1133.86L-150.753 334.639L-709.647 -453.434C-725.179 -475.342 -709.519 -505.835 -682.784 -505.835H-429.69ZM920.32 -506C947.692 -506 963.098 -474.226 946.165 -452.445L556.722 48.5078C506.052 108.084 432.467 142.292 354.553 142.292H177.718L664.046 -493.06C670.284 -501.259 679.959 -506 690.144 -506H920.32Z"/>
</mask>
<path d="M354.553 537.932V535.932V537.932ZM556.722 631.716L558.301 630.488L558.275 630.455L558.247 630.422L556.722 631.716ZM946.165 1132.67L944.586 1133.9L944.594 1133.91L946.165 1132.67ZM664.046 1173.28L665.638 1172.07L665.634 1172.07L664.046 1173.28ZM177.718 537.932V535.932H173.668L176.13 539.147L177.718 537.932ZM-403.083 -492.126V-490.126H-399.204L-401.454 -493.286L-403.083 -492.126ZM-403.21 -492.126V-494.126H-407.126L-404.83 -490.953L-403.21 -492.126ZM-79.077 -44.2158L-77.4566 -45.3881L-77.4568 -45.3883L-79.077 -44.2158ZM41.8683 329.642H43.8683H41.8683ZM-78.5673 702.858L-80.1888 701.688L-80.189 701.688L-78.5673 702.858ZM-417.469 1172.42L-415.851 1173.6L-415.847 1173.59L-417.469 1172.42ZM-444.076 1186.13V1188.13V1186.13ZM-684.058 1186.13L-684.058 1188.13H-684.058V1186.13ZM-710.92 1133.86L-712.558 1132.71L-712.559 1132.71L-710.92 1133.86ZM-150.753 334.639L-149.115 335.787L-148.306 334.632L-149.121 333.482L-150.753 334.639ZM-709.647 -453.434L-711.279 -452.277L-711.279 -452.277L-709.647 -453.434ZM-682.784 -505.835V-507.835H-682.784L-682.784 -505.835ZM946.165 -452.445L944.586 -453.673V-453.673L946.165 -452.445ZM556.722 48.5078L558.245 49.8035L558.274 49.7701L558.301 49.7354L556.722 48.5078ZM354.553 142.292V144.292V142.292ZM177.718 142.292L176.13 141.076L173.668 144.292H177.718V142.292ZM664.046 -493.06L665.634 -491.844L665.638 -491.849L664.046 -493.06ZM354.553 537.932V539.932C431.877 539.932 505.033 573.88 555.197 633.01L556.722 631.716L558.247 630.422C507.326 570.4 433.056 535.932 354.553 535.932V537.932ZM556.722 631.716L555.143 632.943L944.586 1133.9L946.165 1132.67L947.744 1131.44L558.301 630.488L556.722 631.716ZM946.165 1132.67L944.594 1133.91C960.623 1154.25 946.017 1184.22 920.32 1184.22V1186.22V1188.22C949.367 1188.22 965.826 1154.39 947.736 1131.43L946.165 1132.67ZM920.32 1186.22V1184.22H690.144V1186.22V1188.22H920.32V1186.22ZM690.144 1186.22V1184.22C680.58 1184.22 671.496 1179.77 665.638 1172.07L664.046 1173.28L662.454 1174.49C669.073 1183.19 679.338 1188.22 690.144 1188.22V1186.22ZM664.046 1173.28L665.634 1172.07L179.306 536.716L177.718 537.932L176.13 539.147L662.458 1174.5L664.046 1173.28ZM177.718 537.932V539.932H354.553V537.932V535.932H177.718V537.932ZM-429.69 -505.835V-503.835C-419.893 -503.835 -410.445 -499.019 -404.712 -490.966L-403.083 -492.126L-401.454 -493.286C-407.942 -502.401 -418.608 -507.835 -429.69 -507.835V-505.835ZM-403.083 -492.126V-494.126H-403.21V-492.126V-490.126H-403.083V-492.126ZM-403.21 -492.126L-404.83 -490.953L-80.6973 -43.0433L-79.077 -44.2158L-77.4568 -45.3883L-401.59 -493.298L-403.21 -492.126ZM-79.077 -44.2158L-80.6975 -43.0436C-1.88489 65.9017 39.8682 195.15 39.8683 329.642H41.8683H43.8683C43.8682 194.31 1.85065 64.241 -77.4566 -45.3881L-79.077 -44.2158ZM41.8683 329.642H39.8683C39.8683 464.134 -1.63049 592.871 -80.1888 701.688L-78.5673 702.858L-76.9457 704.029C2.10663 594.528 43.8683 464.972 43.8683 329.642H41.8683ZM-78.5673 702.858L-80.189 701.688L-419.09 1171.25L-417.469 1172.42L-415.847 1173.59L-76.9456 704.029L-78.5673 702.858ZM-417.469 1172.42L-419.087 1171.25C-424.959 1179.33 -434.168 1184.13 -444.076 1184.13L-444.076 1186.13V1188.13C-432.851 1188.13 -422.454 1182.68 -415.851 1173.6L-417.469 1172.42ZM-444.076 1186.13V1184.13H-684.058V1186.13V1188.13H-444.076V1186.13ZM-684.058 1186.13L-684.058 1184.13C-709.022 1184.13 -723.773 1155.74 -709.281 1135L-710.92 1133.86L-712.559 1132.71C-728.875 1156.05 -712.309 1188.13 -684.058 1188.13L-684.058 1186.13ZM-710.92 1133.86L-709.282 1135.01L-149.115 335.787L-150.753 334.639L-152.391 333.491L-712.558 1132.71L-710.92 1133.86ZM-150.753 334.639L-149.121 333.482L-708.016 -454.591L-709.647 -453.434L-711.279 -452.277L-152.384 335.796L-150.753 334.639ZM-709.647 -453.434L-708.016 -454.59C-722.619 -475.189 -707.878 -503.835 -682.784 -503.835L-682.784 -505.835L-682.784 -507.835C-711.16 -507.835 -727.739 -475.495 -711.279 -452.277L-709.647 -453.434ZM-682.784 -505.835V-503.835H-429.69V-505.835V-507.835H-682.784V-505.835ZM920.32 -506V-504C946 -504 960.515 -474.162 944.586 -453.673L946.165 -452.445L947.744 -451.218C965.68 -474.29 949.385 -508 920.32 -508V-506ZM946.165 -452.445L944.586 -453.673L555.143 47.2803L556.722 48.5078L558.301 49.7354L947.744 -451.218L946.165 -452.445ZM556.722 48.5078L555.198 47.2121C504.906 106.345 431.876 140.292 354.553 140.292V142.292V144.292C433.058 144.292 507.199 109.823 558.245 49.8035L556.722 48.5078ZM354.553 142.292V140.292H177.718V142.292V144.292H354.553V142.292ZM177.718 142.292L179.306 143.508L665.634 -491.844L664.046 -493.06L662.458 -494.275L176.13 141.076L177.718 142.292ZM664.046 -493.06L665.638 -491.849C671.496 -499.548 680.58 -504 690.144 -504V-506V-508C679.338 -508 669.073 -502.97 662.454 -494.271L664.046 -493.06ZM690.144 -506V-504H920.32V-506V-508H690.144V-506Z" fill="url(#paint1_linear_495_5699)" mask="url(#path-5-inside-1_495_5699)"/>
</g>
</g>
<defs>
<filter id="filter0_f_495_5699" x="-533.4" y="-956.4" width="1679.8" height="1679.8" filterUnits="userSpaceOnUse" color-interpolation-filters="sRGB">
<feFlood flood-opacity="0" result="BackgroundImageFix"/>
<feBlend mode="normal" in="SourceGraphic" in2="BackgroundImageFix" result="shape"/>
<feGaussianBlur stdDeviation="211.7" result="effect1_foregroundBlur_495_5699"/>
</filter>
<filter id="filter1_f_495_5699" x="-627" y="-168" width="1208" height="1208" filterUnits="userSpaceOnUse" color-interpolation-filters="sRGB">
<feFlood flood-opacity="0" result="BackgroundImageFix"/>
<feBlend mode="normal" in="SourceGraphic" in2="BackgroundImageFix" result="shape"/>
<feGaussianBlur stdDeviation="155" result="effect1_foregroundBlur_495_5699"/>
</filter>
<filter id="filter2_f_495_5699" x="-720" y="-509" width="1676.29" height="1698.22" filterUnits="userSpaceOnUse" color-interpolation-filters="sRGB">
<feFlood flood-opacity="0" result="BackgroundImageFix"/>
<feBlend mode="normal" in="SourceGraphic" in2="BackgroundImageFix" result="shape"/>
<feGaussianBlur stdDeviation="1.5" result="effect1_foregroundBlur_495_5699"/>
</filter>
<linearGradient id="paint0_linear_495_5699" x1="-49.5001" y1="2.5" x2="790.034" y2="295.752" gradientUnits="userSpaceOnUse">
<stop stop-color="white"/>
<stop offset="1" stop-color="white" stop-opacity="0"/>
</linearGradient>
<linearGradient id="paint1_linear_495_5699" x1="118" y1="560.5" x2="518.5" y2="1080" gradientUnits="userSpaceOnUse">
<stop stop-color="white"/>
<stop offset="1" stop-color="white" stop-opacity="0"/>
</linearGradient>
<clipPath id="clip0_495_5699">
<rect width="696" height="912" rx="20" fill="white"/>
</clipPath>
</defs>
</svg>
