<svg width="60" height="60" viewBox="0 0 60 60" fill="none" xmlns="http://www.w3.org/2000/svg">
<path d="M45.3604 19.8049L59.0021 2.26598C59.5961 1.50484 59.0553 0.389893 58.0948 0.389893H50.0328C49.6752 0.389893 49.3383 0.556391 49.1196 0.841818L32.0882 23.0873H38.2795C41.0102 23.0873 43.5872 21.8891 45.3604 19.8019V19.8049Z" fill="#7401E8"/>
<path d="M59.0021 57.7668L45.3604 40.2279C43.5902 38.1407 41.0102 36.9425 38.2795 36.9425H32.0882L49.1196 59.188C49.3383 59.4734 49.6752 59.6399 50.0328 59.6399H58.0948C59.0553 59.6399 59.5961 58.5249 59.0021 57.7638V57.7668Z" fill="#1F01FF"/>
<path d="M11.7461 0.874431C11.5303 0.574138 11.1816 0.395746 10.8122 0.395746H1.9463C1.00947 0.395746 0.462763 1.46313 1.00654 2.23021L20.5795 29.8215L0.962201 57.8053C0.424337 58.5753 0.971086 59.6338 1.90496 59.6338H10.3098C10.6792 59.6338 11.025 59.4554 11.2437 59.1551L23.1121 42.7133C25.8724 38.8898 27.3323 34.3705 27.3323 29.6461C27.3323 24.9217 25.8665 20.3816 23.0974 16.5551L11.7461 0.874431Z" fill="#F1F1F1"/>
</svg>
